# xmcd CD database file
#
# Track frame offsets:
#	150
#	20587
#	45372
#	67044
#	89142
#	112564
#	134539
#	164491
#
# Disc length: 2456 seconds
#
# Revision: 0
# Processed by: cddbd v1.5.2PL0 Copyright (c) Steve Scherf et al.
# Submitted via: CDex 1.70beta2
#
DISCID=68099608
DTITLE=Richie Kamuca - Charlie
DYEAR=1900
DGENRE=Jazz
TTITLE0=Dizzy Atmosphere 
TTITLE1=If You Could See Me Now 
TTITLE2=Chi Chi 
TTITLE3=Barbados
TTITLE4=Confirmation
TTITLE5=Blues In B Flat
TTITLE6=Medley
TTITLE7=Hot House
EXTD=
EXTT0=
EXTT1=
EXTT2=
EXTT3=
EXTT4=
EXTT5=
EXTT6=
EXTT7=
PLAYORDER=
